<?xml version="1.0" encoding="utf-8"?>
<!-- Generator: Adobe Illustrator 24.0.1, SVG Export Plug-In . SVG Version: 6.00 Build 0)  -->
<svg version="1.1" id="Layer_1" xmlns="http://www.w3.org/2000/svg" xmlns:xlink="http://www.w3.org/1999/xlink" x="0px" y="0px"
	 viewBox="0 0 512 512" style="enable-background:new 0 0 512 512;" xml:space="preserve">
<style type="text/css">
	.st0{fill:#547580;}
	.st1{fill:#ECF0F1;}
	.st2{fill:#955BA5;}
	.st3{fill:#35495E;}
	.st4{fill:#2C3E50;}
	.st5{fill:#F0C419;}
	.st6{fill:#2FA8CC;}
	.st7{fill:#67B9CC;}
	.st8{fill:#3B97D3;}
	.st9{fill:#B49ACA;}
</style>
<circle cx="256" cy="256" r="256"/>
<g id="Page-1">
	<g id="_x30_18---Lens">
		<path id="Shape" class="st0" d="M350.5,74h54c7.5,0,13.5,6,13.5,13.5v20.3h-81V87.5C337,80,343,74,350.5,74z"/>
		<path id="Shape_1_" class="st1" d="M451.8,114.5v81l-202.5,27l-189-27v-81c0-7.4,6.1-13.5,13.5-13.5h364.5
			C445.7,101,451.7,107.1,451.8,114.5z"/>
		<path id="Shape_2_" class="st2" d="M451.8,195.5v189c0,7.4-6.1,13.5-13.5,13.5H73.8c-7.4,0-13.5-6.1-13.5-13.5v-189H451.8z"/>
		<circle id="Oval" class="st3" cx="296.5" cy="263" r="108"/>
		<circle id="Oval_1_" class="st4" cx="296.5" cy="263" r="94.5"/>
		<path id="Rectangle-path" class="st5" d="M94,128h54c3.7,0,6.8,3,6.8,6.8v27c0,3.7-3,6.8-6.8,6.8H94c-3.7,0-6.8-3-6.8-6.8v-27
			C87.3,131,90.3,128,94,128z"/>
		<path id="Shape_3_" class="st6" d="M377.5,263c0,40.1-29.4,74.2-69.1,80.2c-39.7,5.9-77.7-18.1-89.4-56.5
			c-2.3-7.7-3.5-15.6-3.5-23.6c0-44.7,36.3-81,81-81S377.5,218.3,377.5,263L377.5,263z"/>
		<path id="Shape_4_" class="st7" d="M357.3,229.3c0,32.7-19.7,62.3-50,74.8c-30.2,12.6-65.1,5.7-88.3-17.4
			c-2.3-7.7-3.5-15.6-3.5-23.6c0-32.7,19.7-62.3,50-74.8c30.2-12.6,65.1-5.7,88.3,17.4C356.1,213.3,357.3,221.2,357.3,229.3
			L357.3,229.3z"/>
		<circle id="Oval_2_" class="st8" cx="296.5" cy="263" r="33.8"/>
		<g>
			<path id="Shape_5_" class="st9" d="M100.8,377.8H87.3c-3.7,0-6.8-3-6.8-6.8c0-3.7,3-6.8,6.8-6.8h13.5c3.7,0,6.8,3,6.8,6.8
				C107.5,374.7,104.5,377.8,100.8,377.8z"/>
			<path id="Shape_6_" class="st9" d="M202,377.8h-74.2c-3.7,0-6.8-3-6.8-6.8c0-3.7,3-6.8,6.8-6.8H202c3.7,0,6.8,3,6.8,6.8
				C208.8,374.7,205.7,377.8,202,377.8z"/>
		</g>
	</g>
</g>
</svg>
